<svg width="684" height="689" viewBox="0 0 684 689" fill="none" xmlns="http://www.w3.org/2000/svg">
<path fill-rule="evenodd" clip-rule="evenodd" d="M321.898 7.48942C333.233 -2.49649 350.225 -2.49645 361.56 7.48942L365.113 10.6193C374.42 18.8187 387.813 20.4448 398.812 14.7111L403.011 12.5226C416.406 5.53922 432.905 9.60601 441.521 22.0148L444.221 25.9035C451.296 36.0919 463.911 40.8757 475.963 37.9406L480.562 36.8205C495.24 33.246 510.285 41.1431 515.681 55.2531L517.373 59.675C521.803 71.2604 532.907 78.9246 545.31 78.9591L550.045 78.9718C565.151 79.0136 577.871 90.2821 579.733 105.274L580.317 109.972C581.846 122.281 590.793 132.38 602.828 135.382L607.422 136.527C622.079 140.183 631.732 154.168 629.953 169.169L629.395 173.87C627.934 186.188 634.204 198.134 645.171 203.929L649.356 206.141C662.713 213.198 668.74 229.087 663.422 243.227L661.755 247.657C657.388 259.267 660.617 272.367 669.879 280.618L673.414 283.768C684.693 293.816 686.742 310.685 678.195 323.141L675.516 327.045C668.499 337.273 668.499 350.764 675.516 360.991L678.195 364.896C686.742 377.352 684.693 394.22 673.414 404.269L669.879 407.418C660.617 415.669 657.388 428.769 661.755 440.379L663.422 444.81C668.74 458.95 662.713 474.838 649.356 481.896L645.171 484.108C634.204 489.902 627.934 501.849 629.395 514.166L629.953 518.867C631.732 533.869 622.079 547.853 607.422 551.509L602.828 552.654C590.793 555.656 581.846 565.755 580.317 578.065L579.733 582.763C577.871 597.754 565.151 609.023 550.045 609.065L545.31 609.077C532.907 609.112 521.803 616.776 517.373 628.362L515.681 632.783C510.285 646.893 495.24 654.79 480.562 651.216L475.963 650.095C463.911 647.16 451.296 651.945 444.221 662.133L441.521 666.022C432.905 678.43 416.406 682.497 403.011 675.514L398.812 673.325C387.813 667.592 374.42 669.218 365.113 677.417L361.56 680.547C350.225 690.533 333.233 690.533 321.898 680.547L318.345 677.417C309.038 669.218 295.645 667.592 284.646 673.325L280.448 675.514C267.052 682.497 250.553 678.43 241.937 666.022L239.237 662.133C232.163 651.945 219.548 647.16 207.497 650.095L202.896 651.216C188.219 654.79 173.173 646.893 167.777 632.783L166.086 628.362C161.655 616.776 150.552 609.112 138.148 609.077L133.414 609.065C118.307 609.023 105.588 597.754 103.725 582.763L103.142 578.065C101.613 565.755 92.6657 555.656 80.6306 552.654L76.0369 551.509C61.3795 547.853 51.7273 533.869 53.5066 518.867L54.0642 514.166C55.5253 501.849 49.2548 489.902 38.2879 484.108L34.1023 481.896C20.7455 474.838 14.7191 458.95 20.0369 444.81L21.7039 440.379C26.0702 428.769 22.8415 415.669 13.5799 407.418L10.0447 404.269C-1.23482 394.22 -3.28265 377.352 5.26444 364.896L7.94217 360.991C14.96 350.764 14.96 337.273 7.94217 327.045L5.26444 323.141C-3.28265 310.685 -1.23481 293.817 10.0447 283.768L13.5799 280.618C22.8415 272.367 26.0702 259.267 21.7039 247.657L20.0369 243.227C14.7191 229.087 20.7455 213.198 34.1023 206.141L38.2879 203.929C49.2548 198.134 55.5253 186.188 54.0642 173.87L53.5066 169.169C51.7272 154.168 61.3795 140.184 76.0369 136.527L80.6306 135.382C92.6658 132.38 101.613 122.281 103.142 109.972L103.725 105.274C105.588 90.2821 118.307 79.0136 133.414 78.9718L138.148 78.9591C150.552 78.9247 161.655 71.2604 166.086 59.675L167.777 55.2531C173.173 41.1431 188.219 33.246 202.896 36.8205L207.496 37.9406C219.547 40.8756 232.163 36.0919 239.237 25.9035L241.937 22.0148C250.553 9.60601 267.052 5.53922 280.448 12.5226L284.646 14.7111C295.645 20.4449 309.038 18.8187 318.345 10.6193L321.898 7.48942Z" fill="#F3EBE0"/>
</svg>
