<svg width="234" height="543" viewBox="0 0 234 543" fill="none" xmlns="http://www.w3.org/2000/svg">
<path d="M81.446 2.32272C104.026 -0.650029 126.891 -0.769748 149.501 1.96638L116.884 271.5L81.446 2.32272Z" fill="#78BCBC"/>
<path d="M112.911 20.44V18.784L116.703 13.36H118.995V18.664H119.979V20.44H118.995V22H116.943V20.44H112.911ZM117.087 15.616L115.071 18.664H117.087V15.616Z" fill="black"/>
<path d="M149.501 1.96638C166.449 4.0173 183.165 7.66227 199.429 12.8526L116.884 271.5L149.501 1.96638Z" fill="#F68A50"/>
<path d="M168.207 19.4363C168.416 18.6057 168.828 18.0183 169.44 17.6743C170.053 17.3302 170.802 17.2521 171.686 17.4401C172.273 17.5648 172.752 17.773 173.124 18.0646C173.503 18.3579 173.761 18.703 173.897 19.1001C174.042 19.4988 174.067 19.9172 173.974 20.3554C173.864 20.8719 173.645 21.267 173.317 21.5408C172.991 21.8067 172.643 21.9618 172.274 22.006L172.264 22.0529C172.678 22.2964 172.978 22.6178 173.163 23.017C173.348 23.4162 173.383 23.8857 173.268 24.4257C173.165 24.9108 172.96 25.3171 172.654 25.6445C172.356 25.9657 171.97 26.1862 171.495 26.306C171.027 26.4275 170.5 26.4258 169.913 26.3011C168.974 26.1015 168.272 25.7109 167.807 25.1295C167.349 24.5497 167.204 23.7909 167.37 22.8531L169.319 23.2672C169.254 23.6132 169.293 23.9079 169.438 24.1512C169.584 24.3868 169.837 24.5428 170.197 24.6193C170.502 24.6842 170.755 24.648 170.956 24.5108C171.167 24.3674 171.303 24.151 171.364 23.8614C171.444 23.4858 171.38 23.1901 171.172 22.9742C170.974 22.7521 170.613 22.5854 170.089 22.4739L169.713 22.3941L170.06 20.7625L170.436 20.8424C170.835 20.9272 171.17 20.9289 171.44 20.8474C171.721 20.7598 171.898 20.5399 171.973 20.1878C172.033 19.9061 172.001 19.6703 171.878 19.4806C171.755 19.2908 171.556 19.1668 171.283 19.1086C170.985 19.0454 170.743 19.088 170.556 19.2363C170.377 19.3864 170.247 19.5919 170.167 19.853L168.207 19.4363Z" fill="black"/>
<path d="M31.6348 13.7312C47.8429 8.37084 64.5205 4.551 81.446 2.32272L116.884 271.5L31.6348 13.7312Z" fill="#F68A50"/>
<path d="M55.999 21.5736C55.8347 20.7329 55.9566 20.0264 56.3647 19.4541C56.7728 18.8818 57.4169 18.4924 58.297 18.286C58.8811 18.149 59.4034 18.1333 59.8637 18.239C60.3317 18.3428 60.712 18.5454 61.0045 18.8465C61.3048 19.1459 61.5061 19.5136 61.6084 19.9498C61.729 20.4638 61.6991 20.9146 61.5188 21.302C61.3367 21.6816 61.088 21.97 60.7727 22.1672L60.7836 22.2139C61.2623 22.2578 61.6703 22.4209 62.0077 22.7033C62.3451 22.9858 62.5769 23.3957 62.7029 23.9331C62.8162 24.416 62.8037 24.8708 62.6655 25.2977C62.5333 25.7149 62.2777 26.0789 61.8986 26.3897C61.5274 26.6986 61.0497 26.9216 60.4655 27.0586C59.5309 27.2778 58.7293 27.2234 58.0607 26.8954C57.3999 26.5656 56.9453 25.9409 56.6967 25.0214L58.6361 24.5665C58.7243 24.9074 58.8856 25.1571 59.12 25.3158C59.3526 25.4667 59.648 25.5001 60.0063 25.416C60.3101 25.3448 60.5236 25.2043 60.647 24.9946C60.7763 24.7753 60.8072 24.5215 60.7396 24.2333C60.6519 23.8595 60.4682 23.6191 60.1884 23.5122C59.9145 23.3956 59.5167 23.3985 58.9948 23.5209L58.621 23.6086L58.2401 21.9847L58.6139 21.897C59.0112 21.8038 59.315 21.6627 59.5254 21.4737C59.7417 21.2751 59.8088 21.0005 59.7266 20.65C59.6608 20.3696 59.5318 20.1698 59.3395 20.0506C59.1472 19.9313 58.9147 19.9037 58.6421 19.9676C58.3461 20.037 58.1452 20.1787 58.0392 20.3925C57.941 20.6045 57.9113 20.8457 57.9501 21.116L55.999 21.5736Z" fill="black"/>
<path d="M199.429 12.8526C210.267 16.3113 220.876 20.448 231.195 25.2378L116.884 271.5L199.429 12.8526Z" fill="#EDAA21"/>
<path d="M205.769 34.1736C206.098 34.0637 206.249 34.0121 206.221 34.0189C207.179 33.6782 207.94 33.3889 208.503 33.1512C209.074 32.9163 209.584 32.6379 210.033 32.3161C210.482 31.9943 210.781 31.6305 210.929 31.2245C211.041 30.9163 211.057 30.6498 210.977 30.4249C210.897 30.2 210.714 30.0355 210.429 29.9316C210.143 29.8276 209.878 29.8545 209.633 30.0123C209.399 30.1654 209.21 30.4373 209.068 30.8282L207.207 30.151C207.455 29.5175 207.785 29.033 208.196 28.6976C208.615 28.3648 209.072 28.1736 209.567 28.1238C210.069 28.0768 210.58 28.1477 211.099 28.3365C211.993 28.6621 212.583 29.1363 212.867 29.759C213.158 30.3845 213.17 31.0656 212.902 31.8023C212.609 32.6067 212.063 33.2548 211.262 33.7467C210.464 34.231 209.522 34.6456 208.434 34.9905L211.479 36.0986L210.908 37.666L205.248 35.6057L205.769 34.1736Z" fill="black"/>
<path d="M0 26.4484C10.2681 21.5508 20.8339 17.3032 31.6348 13.7312L116.884 271.5L0 26.4484Z" fill="#EDAA21"/>
<path d="M19.2169 37.6507C19.3818 37.345 19.4564 37.2042 19.4406 37.2284C19.9059 36.3239 20.2625 35.5923 20.5104 35.0334C20.7657 34.4714 20.9469 33.9194 21.054 33.3774C21.1611 32.8354 21.1296 32.3658 20.9594 31.9687C20.8302 31.6673 20.6595 31.4619 20.4473 31.3527C20.2351 31.2434 19.9893 31.2487 19.7099 31.3684C19.4305 31.4882 19.2556 31.6894 19.1852 31.9719C19.119 32.244 19.1679 32.5712 19.3318 32.9536L17.5119 33.7336C17.2587 33.1023 17.1673 32.5235 17.2377 31.9972C17.3154 31.4678 17.5176 31.0155 17.8443 30.6405C18.1783 30.2624 18.599 29.9645 19.1064 29.7471C19.9814 29.3721 20.7356 29.3143 21.369 29.5737C22.0098 29.83 22.4846 30.3184 22.7935 31.039C23.1307 31.8258 23.1759 32.6725 22.9291 33.579C22.6791 34.4782 22.2757 35.4257 21.719 36.4216L24.697 35.1452L25.3541 36.6783L19.8172 39.0514L19.2169 37.6507Z" fill="black"/>
<path d="M152.322 540.678C129.741 543.651 106.877 543.77 84.2665 541.034L116.884 271.5L152.322 540.678Z" fill="#78BCBC"/>
<path d="M120.856 522.561V524.217L117.064 529.641H114.772V524.337H113.788V522.561H114.772V521.001H116.824V522.561H120.856ZM116.68 527.385L118.696 524.337H116.68V527.385Z" fill="black"/>
<path d="M84.2665 541.034C67.3187 538.983 50.6021 535.338 34.3387 530.148L116.884 271.5L84.2665 541.034Z" fill="#F68A50"/>
<path d="M65.5604 523.564C65.3511 524.395 64.94 524.982 64.327 525.326C63.7141 525.67 62.9655 525.748 62.0813 525.56C61.4944 525.436 61.0152 525.228 60.6437 524.936C60.2644 524.643 60.0065 524.297 59.8701 523.9C59.7258 523.502 59.7003 523.083 59.7934 522.645C59.9032 522.129 60.1221 521.733 60.4502 521.46C60.7767 521.194 61.1245 521.039 61.4938 520.995L61.5037 520.948C61.0893 520.704 60.7896 520.383 60.6045 519.984C60.4195 519.584 60.3843 519.115 60.4991 518.575C60.6022 518.09 60.8072 517.683 61.1139 517.356C61.4112 517.035 61.7975 516.814 62.2728 516.695C62.7403 516.573 63.2674 516.575 63.8543 516.699C64.7934 516.899 65.4955 517.29 65.9608 517.871C66.4182 518.451 66.5636 519.21 66.397 520.147L64.4485 519.733C64.5139 519.387 64.4743 519.093 64.3298 518.849C64.1835 518.614 63.9304 518.458 63.5705 518.381C63.2653 518.316 63.0122 518.353 62.8113 518.49C62.6009 518.633 62.4649 518.85 62.4034 519.139C62.3236 519.515 62.3875 519.81 62.5951 520.026C62.7933 520.248 63.1545 520.415 63.6788 520.527L64.0544 520.606L63.7076 522.238L63.332 522.158C62.9329 522.073 62.5979 522.072 62.3271 522.153C62.0467 522.241 61.8691 522.461 61.7943 522.813C61.7344 523.094 61.7661 523.33 61.8893 523.52C62.0126 523.71 62.2111 523.834 62.485 523.892C62.7824 523.955 63.0245 523.913 63.2114 523.764C63.3906 523.614 63.5201 523.409 63.6002 523.148L65.5604 523.564Z" fill="black"/>
<path d="M202.133 529.269C185.925 534.63 169.247 538.45 152.322 540.678L116.884 271.5L202.133 529.269Z" fill="#F68A50"/>
<path d="M177.768 521.427C177.933 522.268 177.811 522.974 177.403 523.546C176.995 524.119 176.351 524.508 175.471 524.715C174.886 524.852 174.364 524.867 173.904 524.761C173.436 524.658 173.055 524.455 172.763 524.154C172.463 523.855 172.261 523.487 172.159 523.051C172.039 522.537 172.068 522.086 172.249 521.699C172.431 521.319 172.68 521.031 172.995 520.833L172.984 520.787C172.505 520.743 172.097 520.58 171.76 520.297C171.422 520.015 171.191 519.605 171.065 519.067C170.951 518.584 170.964 518.13 171.102 517.703C171.234 517.286 171.49 516.922 171.869 516.611C172.24 516.302 172.718 516.079 173.302 515.942C174.237 515.723 175.038 515.777 175.707 516.105C176.368 516.435 176.822 517.06 177.071 517.979L175.131 518.434C175.043 518.093 174.882 517.843 174.648 517.685C174.415 517.534 174.119 517.5 173.761 517.584C173.457 517.656 173.244 517.796 173.12 518.006C172.991 518.225 172.96 518.479 173.028 518.767C173.116 519.141 173.299 519.381 173.579 519.488C173.853 519.605 174.251 519.602 174.773 519.48L175.147 519.392L175.527 521.016L175.154 521.103C174.756 521.197 174.453 521.338 174.242 521.527C174.026 521.725 173.959 522 174.041 522.351C174.107 522.631 174.236 522.831 174.428 522.95C174.62 523.069 174.853 523.097 175.125 523.033C175.421 522.963 175.622 522.822 175.728 522.608C175.826 522.396 175.856 522.155 175.817 521.885L177.768 521.427Z" fill="black"/>
<path d="M34.3387 530.148C23.501 526.689 12.8913 522.553 2.57251 517.763L116.884 271.5L34.3387 530.148Z" fill="#EDAA21"/>
<path d="M27.9987 508.827C27.6693 508.937 27.5185 508.988 27.5466 508.982C26.5882 509.322 25.8274 509.612 25.2642 509.849C24.6934 510.084 24.1834 510.363 23.7343 510.684C23.2851 511.006 22.9867 511.37 22.8389 511.776C22.7267 512.084 22.7106 512.351 22.7905 512.576C22.8704 512.801 23.0532 512.965 23.3388 513.069C23.6245 513.173 23.8897 513.146 24.1345 512.988C24.3689 512.835 24.5573 512.563 24.6996 512.172L26.5602 512.849C26.3126 513.483 25.983 513.968 25.5714 514.303C25.1524 514.636 24.6954 514.827 24.2005 514.877C23.6982 514.924 23.1876 514.853 22.6689 514.664C21.7743 514.338 21.1849 513.864 20.9008 513.242C20.6091 512.616 20.5974 511.935 20.8655 511.198C21.1583 510.394 21.7049 509.746 22.5054 509.254C23.3032 508.769 24.2459 508.355 25.3334 508.01L22.2888 506.902L22.8593 505.335L28.52 507.395L27.9987 508.827Z" fill="black"/>
<path d="M233.768 516.552C223.499 521.45 212.934 525.697 202.133 529.269L116.884 271.5L233.768 516.552Z" fill="#EDAA21"/>
<path d="M214.551 505.35C214.386 505.656 214.311 505.796 214.327 505.772C213.862 506.677 213.505 507.408 213.257 507.967C213.002 508.529 212.821 509.081 212.714 509.623C212.606 510.165 212.638 510.635 212.808 511.032C212.937 511.333 213.108 511.539 213.32 511.648C213.532 511.757 213.778 511.752 214.058 511.632C214.337 511.512 214.512 511.311 214.582 511.029C214.648 510.756 214.6 510.429 214.436 510.047L216.256 509.267C216.509 509.898 216.6 510.477 216.53 511.003C216.452 511.533 216.25 511.985 215.923 512.36C215.589 512.738 215.168 513.036 214.661 513.253C213.786 513.628 213.032 513.686 212.398 513.427C211.758 513.171 211.283 512.682 210.974 511.961C210.637 511.175 210.592 510.328 210.838 509.421C211.088 508.522 211.492 507.575 212.048 506.579L209.07 507.855L208.413 506.322L213.95 503.949L214.551 505.35Z" fill="black"/>
</svg>
